<?xml version="1.0" encoding="UTF-8" standalone="no"?>
<!-- Generator: Adobe Illustrator 16.0.4, SVG Export Plug-In . SVG Version: 6.00 Build 0)  -->
<!DOCTYPE svg  PUBLIC '-//W3C//DTD SVG 1.1//EN'  'http://www.w3.org/Graphics/SVG/1.1/DTD/svg11.dtd'>
<svg id="Layer_1" xmlns="http://www.w3.org/2000/svg" xml:space="preserve" height="1792px" viewBox="0 0 1792 1792" width="1792px" version="1.1" y="0px" x="0px" xmlns:xlink="http://www.w3.org/1999/xlink" enable-background="new 0 0 1792 1792">
<path d="m1376 128c79.333 0 147.17 28.167 203.5 84.5s84.5 124.17 84.5 203.5v960c0 79.333-28.167 147.17-84.5 203.5s-124.2 84.5-203.5 84.5h-960c-79.333 0-147.17-28.167-203.5-84.5s-84.5-124.2-84.5-203.5v-960c0-79.333 28.167-147.17 84.5-203.5s124.17-84.5 203.5-84.5h960zm-550 768c0-58.667-20.667-108.67-62-150s-91.333-62-150-62-108.67 20.667-150 62-62 91.333-62 150 20.667 108.67 62 150 91.333 62 150 62 108.67-20.667 150-62 62-91.33 62-150zm564 0c0-58.667-20.667-108.67-62-150s-91.333-62-150-62-108.67 20.667-150 62-62 91.333-62 150 20.667 108.67 62 150 91.333 62 150 62 108.67-20.667 150-62 62-91.33 62-150z" fill="#fff"/>
</svg>
