<?xml version="1.0" encoding="UTF-8" standalone="no"?>
<!-- Generator: Adobe Illustrator 16.0.4, SVG Export Plug-In . SVG Version: 6.00 Build 0)  -->
<!DOCTYPE svg  PUBLIC '-//W3C//DTD SVG 1.1//EN'  'http://www.w3.org/Graphics/SVG/1.1/DTD/svg11.dtd'>
<svg id="Layer_1" xmlns="http://www.w3.org/2000/svg" xml:space="preserve" height="1792px" viewBox="0 0 1792 1792" width="1792px" version="1.1" y="0px" x="0px" xmlns:xlink="http://www.w3.org/1999/xlink" enable-background="new 0 0 1792 1792">
<path d="m1490 1426v-648h-135c13.333 42 20 85.667 20 131 0 84-21.333 161.5-64 232.5s-100.67 127.17-174 168.5-153.33 62-240 62c-131.33 0-243.67-45.167-337-135.5s-140-199.5-140-327.5c0-45.333 6.667-89 20-131h-141v648c0 17.333 5.833 31.833 17.5 43.5s26.167 17.5 43.5 17.5h1069c16.667 0 31-5.833 43-17.5s18-26.2 18-43.5zm-284-533c0-82.667-30.167-153.17-90.5-211.5s-133.17-87.5-218.5-87.5c-84.667 0-157.17 29.167-217.5 87.5s-90.5 128.83-90.5 211.5 30.167 153.17 90.5 211.5 132.83 87.5 217.5 87.5c85.333 0 158.17-29.167 218.5-87.5s90.5-128.83 90.5-211.5zm284-360v-165c0-18.667-6.667-34.833-20-48.5s-29.667-20.5-49-20.5h-174c-19.333 0-35.667 6.833-49 20.5s-20 29.833-20 48.5v165c0 19.333 6.667 35.667 20 49s29.667 20 49 20h174c19.333 0 35.667-6.667 49-20s20-29.67 20-49zm174-208v1142c0 54-19.333 100.33-58 139s-85 58-139 58h-1142c-54 0-100.33-19.333-139-58s-58-85-58-139v-1142c0-54 19.333-100.33 58-139s85-58 139-58h1142c54 0 100.33 19.333 139 58s58 85 58 139z" fill="#fff"/>
</svg>
