<?xml version="1.0" encoding="UTF-8" standalone="no"?>
<!-- Generator: Adobe Illustrator 16.0.4, SVG Export Plug-In . SVG Version: 6.00 Build 0)  -->
<!DOCTYPE svg  PUBLIC '-//W3C//DTD SVG 1.1//EN'  'http://www.w3.org/Graphics/SVG/1.1/DTD/svg11.dtd'>
<svg id="Layer_1" xmlns="http://www.w3.org/2000/svg" xml:space="preserve" height="560px" viewBox="196.5 0 563.535 560" width="563.54px" version="1.1" y="0px" x="0px" xmlns:xlink="http://www.w3.org/1999/xlink" enable-background="new 196.5 0 563.535 560">
<g fill="#28537B">
	<path d="m428.19 475.58c-27.23 0-63.572-19.425-94.838-50.691-20.802-20.802-36.727-44.252-44.847-66.034-9.229-24.768-7.49-45.243 4.912-57.633 7.035-7.047 17.01-10.757 28.84-10.757 27.23 0 63.572 19.425 94.839 50.691 20.801 20.802 36.727 44.252 44.847 66.033 9.228 24.769 7.489 45.244-4.912 57.634-7.04 7.03-17.01 10.76-28.84 10.76zm-105.92-161.8c-5.588 0-9.73 1.317-12.343 3.92-5.402 5.401-5.238 17.744 0.455 32.993 6.965 18.713 20.988 39.188 39.48 57.68 30.298 30.299 61.18 43.855 78.342 43.855 5.588 0 9.729-1.318 12.343-3.92 5.402-5.402 5.238-17.745-0.455-32.994-6.965-18.713-20.988-39.188-39.479-57.68-30.29-30.28-61.17-43.85-78.33-43.85z"/>
	<path d="m499.81 375.36c-2.986 0-5.973-1.144-8.248-3.418-4.562-4.562-4.562-11.936 0-16.497 3.419-3.418 3.477-11.655 0.14-21.502-4.352-12.868-14.022-27.416-26.518-39.911-20.021-20.031-40.997-28.991-52.896-28.991-2.695 0-6.358 0.455-8.506 2.613-4.538 4.55-11.888 4.562-16.461 0.046l-0.968-0.957c-2.205-2.193-3.453-5.157-3.465-8.26-0.012-3.104 1.213-6.09 3.418-8.284l89.506-89.506c1.703-1.704 3.885-2.824 6.219-3.244 5.495-3.453 12.203-5.25 19.763-5.25 20.697 0 47.297 13.732 69.382 35.829 15.179 15.167 26.577 32.55 32.13 48.93 6.476 19.145 4.434 35.304-5.763 45.488l-89.437 89.448c-0.012 0.012-0.023 0.035-0.047 0.047-2.28 2.27-5.25 3.41-8.24 3.41zm-73.79-131.88c17.955 4.375 38.208 16.602 55.661 34.055 15.155 15.167 26.577 32.538 32.119 48.918 0.595 1.75 1.119 3.477 1.562 5.168l65.684-65.683c3.43-3.43 3.488-11.667 0.163-21.513-4.352-12.868-14.022-27.417-26.518-39.912-26.647-26.646-54.426-33.39-61.438-26.367-1.353 1.354-3.01 2.345-4.807 2.905l-62.41 62.42z"/>
	<path d="m374.62 326.81c-2.987 0-5.974-1.144-8.249-3.418-4.562-4.562-4.562-11.936 0-16.497l54.997-55.008c4.562-4.562 11.936-4.562 16.497 0 4.562 4.55 4.562 11.935 0 16.497l-54.997 55.008c-2.28 2.28-5.27 3.42-8.25 3.42z"/>
	<path d="m443.09 395.31c-2.987 0-5.974-1.144-8.249-3.419-4.562-4.562-4.562-11.935 0-16.496l55.009-55.009c4.562-4.562 11.935-4.562 16.497 0s4.562 11.936 0 16.497l-55.009 55.008c-2.28 2.27-5.27 3.42-8.25 3.42z"/>
	<path d="m312.55 457.34c-2.987 0-5.973-1.144-8.26-3.418-4.55-4.562-4.55-11.946 0-16.497l52.278-52.243c4.562-4.562 11.947-4.562 16.509 0 4.55 4.562 4.55 11.946 0 16.497l-52.278 52.243c-2.28 2.28-5.26 3.42-8.25 3.42z"/>
	<path d="m336.54 514.62c-23.124 0-46.83-10.185-64.785-28.151-16.077-16.088-25.958-36.575-27.813-57.691-0.56-6.429 4.177-12.087 10.605-12.646 6.499-0.537 12.075 4.177 12.635 10.593 1.376 15.681 8.867 31.033 21.082 43.248 15.155 15.167 35.315 23.042 54.005 21.023 6.347-0.699 12.157 3.932 12.845 10.36 0.688 6.405-3.943 12.156-10.349 12.845-2.74 0.3-5.49 0.42-8.23 0.42z"/>
	<path d="m322.84 560.02c-31.757 0-63.28-13.207-87.337-37.264-24.698-24.71-38.255-57.972-37.193-91.245 0.21-6.439 5.787-11.899 12.029-11.281 6.44 0.21 11.491 5.588 11.293 12.028-0.852 26.856 10.208 53.83 30.38 74.002 23.894 23.904 56.595 34.708 87.477 28.898 6.335-1.179 12.425 2.975 13.626 9.298 1.19 6.335-2.975 12.437-9.31 13.627-6.96 1.28-13.97 1.92-20.97 1.92z"/>
	<path d="m385.07 237.73c-2.987 0-5.973-1.143-8.249-3.418l-133.5-133.5c-2.182-2.182-3.418-5.157-3.418-8.248 0-3.092 1.225-6.067 3.418-8.249l80.908-80.908c4.562-4.562 11.935-4.562 16.497 0l133.5 133.5c2.193 2.193 3.419 5.157 3.419 8.249 0 3.091-1.226 6.066-3.419 8.248l-80.919 80.909c-2.27 2.27-5.25 3.42-8.24 3.42zm-117.01-145.17l117 117 64.412-64.412-116.99-117-64.42 64.409z"/>
	<path d="m665.7 518.33c-3.104 0-6.066-1.225-8.248-3.418l-133.49-133.51c-4.562-4.562-4.562-11.935 0-16.496l80.908-80.908c4.562-4.562 11.936-4.562 16.497 0l133.5 133.5c2.192 2.193 3.418 5.146 3.418 8.249s-1.226 6.066-3.418 8.248l-80.921 80.92c-2.19 2.19-5.15 3.42-8.25 3.42zm-117-145.18l116.99 117 64.412-64.411-116.98-116.99-64.42 64.4z"/>
</g>
</svg>
