<?xml version="1.0" encoding="UTF-8" standalone="no"?>
<!-- Generator: Adobe Illustrator 16.0.4, SVG Export Plug-In . SVG Version: 6.00 Build 0)  -->
<!DOCTYPE svg  PUBLIC '-//W3C//DTD SVG 1.1//EN'  'http://www.w3.org/Graphics/SVG/1.1/DTD/svg11.dtd'>
<svg id="Layer_1" xmlns="http://www.w3.org/2000/svg" xml:space="preserve" height="1792px" viewBox="0 0 1792 1792" width="1792px" version="1.1" y="0px" x="0px" xmlns:xlink="http://www.w3.org/1999/xlink" enable-background="new 0 0 1792 1792">
<path d="m1408 610c-37.333 16.667-77.667 28-121 34 45.333-26.667 76.333-65.667 93-117-43.333 25.333-88 42.333-134 51-40.667-44-91.667-66-153-66-58 0-107.5 20.5-148.5 61.5s-61.5 90.5-61.5 148.5c0 19.333 1.667 35.333 5 48-86-4.667-166.67-26.333-242-65s-139.33-90.333-192-155c-19.333 33.333-29 68.667-29 106 0 76 30.333 134.33 91 175-31.333-0.667-64.667-9.333-100-26v2c0 50 16.667 94.5 50 133.5s74.333 63.167 123 72.5c-19.333 5.333-36.333 8-51 8-8.667 0-21.667-1.333-39-4 14 42 38.833 76.667 74.5 104s76.167 41.333 121.5 42c-77.333 60-164.33 90-261 90-17.333 0-34-1-50-3 98.667 62.667 206 94 322 94 74.667 0 144.67-11.833 210-35.5s121.33-55.333 168-95 86.833-85.333 120.5-137 58.667-105.67 75-162 24.5-112.5 24.5-168.5c0-12-0.333-21-1-27 42-30 77-66.33 105-109zm256-194v960c0 79.333-28.167 147.17-84.5 203.5s-124.2 84.5-203.5 84.5h-960c-79.333 0-147.17-28.167-203.5-84.5s-84.5-124.2-84.5-203.5v-960c0-79.333 28.167-147.17 84.5-203.5s124.17-84.5 203.5-84.5h960c79.333 0 147.17 28.167 203.5 84.5s84.5 124.17 84.5 203.5z" fill="#fff"/>
</svg>
